<?xml version="1.0" encoding="UTF-8"?>
<svg version="1.1" xmlns="http://www.w3.org/2000/svg" width="73" height="91">
<path d="M0 0 C1.32 0.33 2.64 0.66 4 1 C3.64603149 1.74552124 3.64603149 1.74552124 3.28491211 2.50610352 C-1.84784159 13.32008303 -6.94971056 24.14725036 -12 35 C-6.06 35 -0.12 35 6 35 C6 38.73391801 5.92226204 39.64557695 4.27734375 42.6875 C3.72312744 43.72620239 3.72312744 43.72620239 3.15771484 44.78588867 C2.75504395 45.51654541 2.35237305 46.24720215 1.9375 47 C1.52193848 47.75966064 1.10637695 48.51932129 0.67822266 49.30200195 C-0.16165343 50.83282731 -1.00471372 52.36191033 -1.85107422 53.88916016 C-2.81931967 55.66804885 -3.7309138 57.47760273 -4.62890625 59.29296875 C-9.20917338 68.15452997 -16.08272117 74.20837947 -23.50708008 80.67822266 C-24.71008036 81.74331562 -25.86385901 82.86385901 -27 84 C-34.05580836 90.70035202 -34.05580836 90.70035202 -39 91 C-38.44632885 86.17723284 -37.01217585 82.65346302 -34.75 78.375 C-31.97087357 73.0155106 -29.48947149 67.61922899 -27.23828125 62.01171875 C-25.57724484 57.97178476 -23.77404465 53.99160046 -22 50 C-29.59 50 -37.18 50 -45 50 C-45 52.97 -45 55.94 -45 59 C-44.00419922 58.98259766 -44.00419922 58.98259766 -42.98828125 58.96484375 C-34.21792619 58.87521968 -34.21792619 58.87521968 -30 60 C-30.5775 61.11375 -31.155 62.2275 -31.75 63.375 C-34.06922453 68.14229487 -36.03107231 73.07768078 -38 78 C-45.59 78 -53.18 78 -61 78 C-61.8980954 66.69836752 -62.18628992 55.47962608 -62.18530273 44.14379883 C-62.18752626 41.27866528 -62.20586435 38.41389582 -62.22460938 35.54882812 C-62.2275377 33.71614713 -62.22952624 31.88346434 -62.23046875 30.05078125 C-62.23765427 29.19978348 -62.24483978 28.34878571 -62.25224304 27.47200012 C-62.24916641 26.67984604 -62.24608978 25.88769196 -62.24291992 25.0715332 C-62.24434494 24.37953323 -62.24576996 23.68753326 -62.24723816 22.9745636 C-61.94896737 20.59242875 -61.30202447 19.0140156 -60 17 C-57.28515625 16.35546875 -57.28515625 16.35546875 -54.0625 16.1875 C-53.00160156 16.11917969 -51.94070312 16.05085938 -50.84765625 15.98046875 C-48 16 -48 16 -45 17 C-44.67 26.24 -44.34 35.48 -44 45 C-43.01 44.01 -42.02 43.02 -41 42 C-40.34 42 -39.68 42 -39 42 C-38.77957031 41.45214844 -38.55914062 40.90429688 -38.33203125 40.33984375 C-36.58129871 37.26451006 -34.21052934 34.99841279 -31.6875 32.5625 C-31.21376953 32.09779297 -30.74003906 31.63308594 -30.25195312 31.15429688 C-28.83733614 29.76677242 -27.41868488 28.38336493 -26 27 C-24.33188595 25.33478198 -22.66548338 23.66784912 -21 22 C-19.47555184 20.48668555 -17.95077694 18.9737002 -16.42578125 17.4609375 C-14.72129063 15.76568889 -13.01686527 14.07037465 -11.3125 12.375 C-10.44560547 11.51648437 -9.57871094 10.65796875 -8.68554688 9.7734375 C-7.44321289 8.5359375 -7.44321289 8.5359375 -6.17578125 7.2734375 C-5.42208252 6.52497559 -4.66838379 5.77651367 -3.8918457 5.00537109 C-1.84251154 2.94520496 -1.84251154 2.94520496 0 0 Z " fill="#E6E5BC" transform="translate(66,0)"/>
<path d="M0 0 C1.32 0.33 2.64 0.66 4 1 C2.54237887 4.08367051 1.08377822 7.16687672 -0.375 10.25 C-0.99375 11.55904297 -0.99375 11.55904297 -1.625 12.89453125 C-2.02460937 13.73886719 -2.42421875 14.58320313 -2.8359375 15.453125 C-3.20251465 16.22817383 -3.5690918 17.00322266 -3.94677734 17.80175781 C-4.94231004 19.87959193 -5.96308146 21.9425569 -7 24 C-7.66 24 -8.32 24 -9 24 C-9.28875 24.94875 -9.5775 25.8975 -9.875 26.875 C-11 30 -11 30 -13 32 C-13.33 33.65 -13.66 35.3 -14 37 C-8.06 37 -2.12 37 4 37 C-1.59421943 46.32369905 -10.70239058 53.42143435 -20 59 C-20.66 59 -21.32 59 -22 59 C-21.34 55.7 -20.68 52.4 -20 49 C-27.92 49 -35.84 49 -44 49 C-42 44 -42 44 -41 42 C-40.34 42 -39.68 42 -39 42 C-38.66935547 41.17822266 -38.66935547 41.17822266 -38.33203125 40.33984375 C-36.58129871 37.26451006 -34.21052934 34.99841279 -31.6875 32.5625 C-31.21376953 32.09779297 -30.74003906 31.63308594 -30.25195312 31.15429688 C-28.83733614 29.76677242 -27.41868488 28.38336493 -26 27 C-24.33188595 25.33478198 -22.66548338 23.66784912 -21 22 C-19.47555184 20.48668555 -17.95077694 18.9737002 -16.42578125 17.4609375 C-14.72129063 15.76568889 -13.01686527 14.07037465 -11.3125 12.375 C-10.44560547 11.51648437 -9.57871094 10.65796875 -8.68554688 9.7734375 C-7.44321289 8.5359375 -7.44321289 8.5359375 -6.17578125 7.2734375 C-5.42208252 6.52497559 -4.66838379 5.77651367 -3.8918457 5.00537109 C-1.84251154 2.94520496 -1.84251154 2.94520496 0 0 Z " fill="#F9BA1E" transform="translate(66,0)"/>
<path d="M0 0 C1.89106478 1.58287746 2.91090276 2.44435724 3.30883789 4.92602539 C3.28039795 5.64266357 3.25195801 6.35930176 3.22265625 7.09765625 C3.20267578 7.89445801 3.18269531 8.69125977 3.16210938 9.51220703 C3.12923828 10.35380371 3.09636719 11.19540039 3.0625 12.0625 C2.9281732 18.24037497 3.04764395 23.81557579 4.5546875 29.84375 C5.32391457 33.56842846 5.12221066 37.21146959 5 41 C10.28 41 15.56 41 21 41 C20.38125 42.216875 19.7625 43.43375 19.125 44.6875 C17.94823102 47.02865091 16.88294259 49.30297213 15.9375 51.75 C14.88425912 54.27777812 13.86637006 55.98729401 12 58 C9.73168945 58.45410156 9.73168945 58.45410156 7.11328125 58.390625 C6.17548828 58.37773438 5.23769531 58.36484375 4.27148438 58.3515625 C3.29501953 58.31804687 2.31855469 58.28453125 1.3125 58.25 C0.32443359 58.23195312 -0.66363281 58.21390625 -1.68164062 58.1953125 C-4.12206842 58.14815447 -6.56054769 58.08236042 -9 58 C-9.02485094 51.89852185 -9.04293117 45.79707363 -9.05493164 39.69555664 C-9.0599383 37.62296027 -9.06674559 35.55036739 -9.07543945 33.4777832 C-9.08766646 30.48648208 -9.09326513 27.49522794 -9.09765625 24.50390625 C-9.10281754 23.58791153 -9.10797882 22.67191681 -9.11329651 21.72816467 C-9.11444503 8.3433351 -9.11444503 8.3433351 -7 2 C-3.4375 0.8125 -3.4375 0.8125 0 0 Z " fill="#5AC4D8" transform="translate(15,19)"/>
<path d="M0 0 C0.99 0 1.98 0 3 0 C-2.50198804 14.70107916 -10.53430597 25.76577101 -22.5546875 35.7734375 C-24.13601998 37.0816211 -24.13601998 37.0816211 -26 39 C-33.05580836 45.70035202 -33.05580836 45.70035202 -38 46 C-37.45447031 41.05234881 -35.80908641 37.15710636 -33.5 32.8125 C-30.98561051 28.02513045 -30.98561051 28.02513045 -29 23 C-28.01 23 -27.02 23 -26 23 C-25.67 22.01 -25.34 21.02 -25 20 C-23.02053408 18.63636792 -21.0180755 17.30581356 -19 16 C-17.64567325 14.68799596 -16.31266518 13.35368596 -15 12 C-9.65402844 7.10900474 -9.65402844 7.10900474 -6.375 6.5625 C-2.74694728 5.70322436 -1.93295603 3.02829778 0 0 Z " fill="#6DC5CD" transform="translate(65,45)"/>
<path d="M0 0 C0 1.98 0 3.96 0 6 C-0.66 6 -1.32 6 -2 6 C-1.87882812 6.70769531 -1.75765625 7.41539063 -1.6328125 8.14453125 C-2.1700288 12.32224524 -4.80976713 14.1097584 -7.875 16.6875 C-8.70837891 17.41549805 -8.70837891 17.41549805 -9.55859375 18.15820312 C-11.03284609 19.44595366 -12.5159502 20.72355274 -14 22 C-14.66 22.66 -15.32 23.32 -16 24 C-16.66 24 -17.32 24 -18 24 C-20.46751239 20.29873141 -20.30721156 18.37776468 -20 14 C-18.64633767 10.11198099 -16.50502314 8.76742611 -13 6.75 C-11.6696875 5.96882813 -11.6696875 5.96882813 -10.3125 5.171875 C-8 4 -8 4 -6 4 C-5.67 3.34 -5.34 2.68 -5 2 C-1.44444444 0 -1.44444444 0 0 0 Z " fill="#64CAE8" transform="translate(55,60)"/>
<path d="M0 0 C4.95 0 9.9 0 15 0 C15 10.89 15 21.78 15 33 C14.67 33 14.34 33 14 33 C12.46272655 24.98421702 11.78743695 17.34257819 12.07421875 9.20703125 C12.11897786 7.47175502 12.06695533 5.73456161 12 4 C11.34 3.34 10.68 2.68 10 2 C8.02 2.66 6.04 3.32 4 4 C3.65725594 5.66475686 3.32635698 7.33195323 3 9 C2.82992432 9.83869629 2.65984863 10.67739258 2.48461914 11.54150391 C1.84545467 16.10291644 1.76614328 20.61000123 1.68359375 25.2109375 C1.66281265 26.17907379 1.64203156 27.14721008 1.62062073 28.14468384 C1.55551016 31.22138732 1.49642002 34.29817236 1.4375 37.375 C1.39427814 39.46745617 1.3506627 41.55990426 1.30664062 43.65234375 C1.19913168 48.76814698 1.09977229 53.88401668 1 59 C7.93 59 14.86 59 22 59 C22.33 58.01 22.66 57.02 23 56 C23.33 56.66 23.66 57.32 24 58 C23.67 58.66 23.34 59.32 23 60 C15.41 60 7.82 60 0 60 C-0.90764037 48.67610583 -1.15603259 37.44703853 -1.13037109 26.08886719 C-1.12492969 23.21283896 -1.13039247 20.33696151 -1.13671875 17.4609375 C-1.13605925 15.62499966 -1.13478074 13.78906191 -1.1328125 11.953125 C-1.13483673 11.09696594 -1.13686096 10.24080688 -1.13894653 9.35870361 C-1.12554707 5.99102904 -1.07232351 3.21697052 0 0 Z " fill="#AEDDDC" transform="translate(5,18)"/>
<path d="M0 0 C1.32 0.33 2.64 0.66 4 1 C2.54237887 4.08367051 1.08377822 7.16687672 -0.375 10.25 C-0.99375 11.55904297 -0.99375 11.55904297 -1.625 12.89453125 C-2.02460937 13.73886719 -2.42421875 14.58320313 -2.8359375 15.453125 C-3.20251465 16.22817383 -3.5690918 17.00322266 -3.94677734 17.80175781 C-4.94231004 19.87959193 -5.96308146 21.9425569 -7 24 C-7.33 24 -7.66 24 -8 24 C-8.125 17.375 -8.125 17.375 -7 14 C-11.91471867 16.1369735 -15.3648707 18.96115342 -19.0546875 22.76171875 C-19.60109894 23.31237503 -20.14751038 23.86303131 -20.71047974 24.43037415 C-22.43921202 26.17578276 -24.15716708 27.93136991 -25.875 29.6875 C-27.05138451 30.8789456 -28.2284612 32.06970819 -29.40625 33.25976562 C-32.27889996 36.16533809 -35.14193689 39.08008092 -38 42 C-38 39 -38 39 -35.55078125 36.2578125 C-34.4788468 35.20585198 -33.39904283 34.16186502 -32.3125 33.125 C-31.51682617 32.34962891 -31.51682617 32.34962891 -30.70507812 31.55859375 C-29.63926597 30.52024424 -28.57079576 29.48461648 -27.49975586 28.45166016 C-25.30590868 26.32816751 -23.15583542 24.1620482 -21 22 C-19.47563255 20.48660424 -17.95084719 18.97362937 -16.42578125 17.4609375 C-14.72129063 15.76568889 -13.01686527 14.07037465 -11.3125 12.375 C-10.44560547 11.51648437 -9.57871094 10.65796875 -8.68554688 9.7734375 C-7.85732422 8.9484375 -7.02910156 8.1234375 -6.17578125 7.2734375 C-5.42208252 6.52497559 -4.66838379 5.77651367 -3.8918457 5.00537109 C-1.84251154 2.94520496 -1.84251154 2.94520496 0 0 Z " fill="#F7ED8C" transform="translate(66,0)"/>
<path d="M0 0 C0.68707555 2.49064888 1 4.37886292 1 7 C1.12985409 8.83453438 1.27743352 10.66785448 1.4375 12.5 C1.55931641 13.93859375 1.55931641 13.93859375 1.68359375 15.40625 C1.92610418 18.11001997 1.92610418 18.11001997 3 21 C4.98 21 6.96 21 9 21 C9.33 20.34 9.66 19.68 10 19 C10.99 18.67 11.98 18.34 13 18 C13 18.66 13 19.32 13 20 C14.65 20 16.3 20 18 20 C17.85892253 18.54119891 17.71197585 17.08296449 17.5625 15.625 C17.48128906 14.81289062 17.40007813 14.00078125 17.31640625 13.1640625 C17.10909886 10.95727195 17.10909886 10.95727195 16 9 C20.75 9.875 20.75 9.875 23 11 C22.88541307 12.43836751 22.75790884 13.87570966 22.625 15.3125 C22.55539063 16.11300781 22.48578125 16.91351563 22.4140625 17.73828125 C22 20 22 20 20 23 C17.84521484 23.34057617 17.84521484 23.34057617 15.2109375 23.29296875 C14.26992188 23.28330078 13.32890625 23.27363281 12.359375 23.26367188 C10.88210937 23.2259668 10.88210937 23.2259668 9.375 23.1875 C7.88613281 23.16719727 7.88613281 23.16719727 6.3671875 23.14648438 C3.91091928 23.11105743 1.45572715 23.06166196 -1 23 C-1.02894547 19.54168414 -1.04678 16.08339928 -1.0625 12.625 C-1.07087891 11.64015625 -1.07925781 10.6553125 -1.08789062 9.640625 C-1.09111328 8.69960938 -1.09433594 7.75859375 -1.09765625 6.7890625 C-1.10289307 5.91975098 -1.10812988 5.05043945 -1.11352539 4.15478516 C-1 2 -1 2 0 0 Z " fill="#44B5D5" transform="translate(7,54)"/>
<path d="M0 0 C0.33 0.99 0.66 1.98 1 3 C-0.32 5.64 -1.64 8.28 -3 11 C2.94 11 8.88 11 15 11 C15 15.41789639 14.33062044 17.30315379 12 21 C10.34795544 21.70211894 8.68076231 22.36971413 7 23 C6.525625 23.825 6.05125 24.65 5.5625 25.5 C3.48806401 28.81909759 1.67223795 28.84792535 -2 30 C-3.67841205 31.21159243 -3.67841205 31.21159243 -5.25 32.625 C-8 35 -8 35 -10 35 C-10.66 36.32 -11.32 37.64 -12 39 C-12 36 -12 36 -10.39453125 34.109375 C-7.60874179 31.65533535 -4.67258321 29.45080439 -1.6875 27.25 C3.58517087 23.29420289 7.87264178 19.18319404 12 14 C6.39 13.67 0.78 13.34 -5 13 C-5 8.1681188 -4.98424968 7.35176828 -2.5 3.6875 C-2.0359375 2.99011719 -1.571875 2.29273438 -1.09375 1.57421875 C-0.55234375 0.79498047 -0.55234375 0.79498047 0 0 Z " fill="#A4CDA0" transform="translate(57,24)"/>
<path d="M0 0 C0 4.73498345 -2.3236901 7.25432498 -5.4375 10.6875 C-8 13 -8 13 -10.125 14 C-12.83302206 15.44427843 -13.73024207 17.25999604 -15 20 C-14.67 20.99 -14.34 21.98 -14 23 C-10.37 23.33 -6.74 23.66 -3 24 C-3 24.66 -3 25.32 -3 26 C-9.93 26 -16.86 26 -24 26 C-21.63126083 20.07815208 -21.20636944 19.12382166 -16 16 C-14.628513 14.78143026 -13.29849841 13.51473416 -12.01171875 12.20703125 C-11.30595703 11.49482422 -10.60019531 10.78261719 -9.87304688 10.04882812 C-9.15181641 9.31083984 -8.43058594 8.57285156 -7.6875 7.8125 C-6.94693359 7.06291016 -6.20636719 6.31332031 -5.44335938 5.54101562 C-3.62428288 3.69846718 -1.81005611 1.85140338 0 0 Z " fill="#EBA647" transform="translate(46,23)"/>
<path d="M0 0 C5.94 0 11.88 0 18 0 C13.41834222 7.6360963 6.09156563 14.95421718 -2 19 C-0.96905133 16.42262834 -0.4891374 15.23715753 2.0625 14 C2.701875 13.67 3.34125 13.34 4 13 C4.36162029 11.67405895 4.69728039 10.34061543 5 9 C5.99 8.67 6.98 8.34 8 8 C8.33 6.35 8.66 4.7 9 3 C7.88625 2.87625 6.7725 2.7525 5.625 2.625 C2 2 2 2 0 0 Z " fill="#E7D438" transform="translate(52,37)"/>
<path d="M0 0 C-0.14477338 6.42267345 -0.9850379 10.93423228 -4.74609375 16.2109375 C-6.04680232 18.06677715 -7.03130531 19.95447726 -8 22 C-8 20.02 -8 18.04 -8 16 C-7.34 16 -6.68 16 -6 16 C-6 13.36 -6 10.72 -6 8 C-7.98 8.33 -9.96 8.66 -12 9 C-11.0919838 7.86800647 -10.17316174 6.74467637 -9.25 5.625 C-8.73953125 4.99851562 -8.2290625 4.37203125 -7.703125 3.7265625 C-5.40193949 1.3937093 -3.32507703 0 0 0 Z " fill="#F5D614" transform="translate(59,14)"/>
<path d="M0 0 C0.66 0 1.32 0 2 0 C1.67 0.845625 1.34 1.69125 1 2.5625 C-0.54501599 7.87349246 -0.29518556 12.65735957 1 18 C-4.5 23 -4.5 23 -9 23 C-8.45447031 18.05234881 -6.80908641 14.15710636 -4.5 9.8125 C-1.98561051 5.02513045 -1.98561051 5.02513045 0 0 Z " fill="#54B8D9" transform="translate(36,68)"/>
<path d="M0 0 C0.99 0 1.98 0 3 0 C1.20375499 5.00310051 -1.37237034 9.54953829 -3.9375 14.1875 C-4.38029297 15.00669922 -4.82308594 15.82589844 -5.27929688 16.66992188 C-5.71177734 17.45302734 -6.14425781 18.23613281 -6.58984375 19.04296875 C-6.98034912 19.75477295 -7.37085449 20.46657715 -7.77319336 21.19995117 C-9 23 -9 23 -12 25 C-12 23.68 -12 22.36 -12 21 C-11.34 21 -10.68 21 -10 21 C-9.67 19.68 -9.34 18.36 -9 17 C-8.67 17 -8.34 17 -8 17 C-7.34 14.69 -6.68 12.38 -6 10 C-5.34 10 -4.68 10 -4 10 C-3.896875 9.0925 -3.79375 8.185 -3.6875 7.25 C-2.99095383 3.95723628 -2.3594032 2.3594032 0 0 Z " fill="#98D3DC" transform="translate(65,45)"/>
<path d="M0 0 C0.33 0.99 0.66 1.98 1 3 C-0.32 5.64 -1.64 8.28 -3 11 C2.94 11 8.88 11 15 11 C15 12.32 15 13.64 15 15 C14.67 14.34 14.34 13.68 14 13 C7.73 13 1.46 13 -5 13 C-5 8.1681188 -4.98424968 7.35176828 -2.5 3.6875 C-2.0359375 2.99011719 -1.571875 2.29273438 -1.09375 1.57421875 C-0.7328125 1.05472656 -0.371875 0.53523438 0 0 Z " fill="#F7E987" transform="translate(57,24)"/>
<path d="M0 0 C0.66 0.33 1.32 0.66 2 1 C2.63019694 10.17286652 2.63019694 10.17286652 0 13.625 C-0.66 14.07875 -1.32 14.5325 -2 15 C-4.46751239 11.29873141 -4.30721156 9.37776468 -4 5 C-2.98263229 2.23857335 -2.63829259 1.31914629 0 0 Z " fill="#49BCE4" transform="translate(39,69)"/>
<path d="M0 0 C1.09658936 3.28976808 0.79953138 4.71303767 0 8 C-0.66 8 -1.32 8 -2 8 C-2 9.32 -2 10.64 -2 12 C-2.66 12 -3.32 12 -4 12 C-4 11.01 -4 10.02 -4 9 C-5.65 8.67 -7.3 8.34 -9 8 C-7.75 4.5625 -7.75 4.5625 -6 1 C-3.76419496 -0.01627502 -2.42194077 0 0 0 Z " fill="#F8C617" transform="translate(53,22)"/>
<path d="M0 0 C0.66 0.33 1.32 0.66 2 1 C2 8.92 2 16.84 2 25 C1.67 25 1.34 25 1 25 C-2.50812065 5.0162413 -2.50812065 5.0162413 0 0 Z " fill="#9ECEC2" transform="translate(18,26)"/>
<path d="M0 0 C1.65 0.33 3.3 0.66 5 1 C6.478746 5.436238 4.74833678 7.73405826 3 12 C-0.3 12 -3.6 12 -7 12 C-6 10 -6 10 -3 9 C-3 9.66 -3 10.32 -3 11 C-1.35 11 0.3 11 2 11 C1.85892253 9.54119891 1.71197585 8.08296449 1.5625 6.625 C1.48128906 5.81289062 1.40007813 5.00078125 1.31640625 4.1640625 C1.10909886 1.95727195 1.10909886 1.95727195 0 0 Z " fill="#39BCE5" transform="translate(23,63)"/>
<path d="M0 0 C5.28 0 10.56 0 16 0 C15.38125 1.216875 14.7625 2.43375 14.125 3.6875 C12.5945227 6.74302738 11.20109887 9.79706968 10 13 C8.90341064 9.71023192 9.20046862 8.28696233 10 5 C9.34 5 8.68 5 8 5 C8 4.34 8 3.68 8 3 C8.66 3 9.32 3 10 3 C10 2.34 10 1.68 10 1 C6.7 1 3.4 1 0 1 C0 0.67 0 0.34 0 0 Z " fill="#77CDE4" transform="translate(20,60)"/>
<path d="M0 0 C0 1.98 0 3.96 0 6 C-0.66 6 -1.32 6 -2 6 C-2 7.32 -2 8.64 -2 10 C-3.65 10.66 -5.3 11.32 -7 12 C-8 9 -8 9 -6.8125 5.4375 C-5 2 -5 2 -2.875 0.5625 C-1 0 -1 0 0 0 Z " fill="#58C3DF" transform="translate(55,60)"/>
<path d="M0 0 C-0.33 0.99 -0.66 1.98 -1 3 C-1.99 3 -2.98 3 -4 3 C-4.66 4.32 -5.32 5.64 -6 7 C-6.66 7 -7.32 7 -8 7 C-9.39360594 7.62684283 -10.76710464 8.29915078 -12.125 9 C-12.84945312 9.37125 -13.57390625 9.7425 -14.3203125 10.125 C-14.87460937 10.41375 -15.42890625 10.7025 -16 11 C-14.63738776 6.09459595 -12.35224984 4.47480873 -8 2 C-4.99167651 0.60077977 -3.33265035 0 0 0 Z " fill="#58C4D8" transform="translate(54,59)"/>
<path d="M0 0 C0.66 0 1.32 0 2 0 C1.67 0.845625 1.34 1.69125 1 2.5625 C-0.54501599 7.87349246 -0.29518556 12.65735957 1 18 C0.34 18 -0.32 18 -1 18 C-1 16.68 -1 15.36 -1 14 C-1.99 14 -2.98 14 -4 14 C-4 14.66 -4 15.32 -4 16 C-4.66 16 -5.32 16 -6 16 C-4.27933894 10.55123997 -2.15294651 5.28830549 0 0 Z " fill="#8DD9EC" transform="translate(36,68)"/>
<path d="M0 0 C0 4.7013236 -2.28654842 7.21144825 -5.375 10.625 C-7.82706527 12.84353525 -10.02908589 14.55469044 -13 16 C-13.66 15.67 -14.32 15.34 -15 15 C-10.05 10.05 -5.1 5.1 0 0 Z " fill="#EABC46" transform="translate(46,23)"/>
<path d="M0 0 C2.97 0 5.94 0 9 0 C7 1.33333333 5 2.66666667 3 4 C2.29805007 5.80252869 2.29805007 5.80252869 2 8 C1.814375 9.0725 1.62875 10.145 1.4375 11.25 C1.293125 12.1575 1.14875 13.065 1 14 C0.67 14 0.34 14 0 14 C0 9.38 0 4.76 0 0 Z " fill="#9BCABB" transform="translate(6,19)"/>
<path d="M0 0 C1.32 0.33 2.64 0.66 4 1 C2.02 4.96 0.04 8.92 -2 13 C-2.33 13 -2.66 13 -3 13 C-3 11.35 -3 9.7 -3 8 C-2.34 8 -1.68 8 -1 8 C-0.67 6.68 -0.34 5.36 0 4 C-0.66 3.67 -1.32 3.34 -2 3 C-1.34 2.01 -0.68 1.02 0 0 Z " fill="#F9F6BE" transform="translate(66,0)"/>
<path d="M0 0 C3.51760602 3.51760602 3.05502509 8.12842961 3.0625 12.875 C3.0466164 14.25006609 3.02749766 15.62511713 3 17 C0.47883188 12.22360976 -1.30454365 7.43634916 -0.625 2 C-0.41875 1.34 -0.2125 0.68 0 0 Z " fill="#6FC6D7" transform="translate(17,43)"/>
<path d="M0 0 C1.32 0 2.64 0 4 0 C4 2.31 4 4.62 4 7 C4.99 7.33 5.98 7.66 7 8 C3.25 11 3.25 11 1 11 C1.66 7.7 2.32 4.4 3 1 C2.01 0.67 1.02 0.34 0 0 Z " fill="#F0BF35" transform="translate(43,48)"/>
<path d="M0 0 C1 3 1 3 0.07421875 4.90234375 C-0.61220703 5.90974609 -0.61220703 5.90974609 -1.3125 6.9375 C-3.0776981 9.56253672 -4.63811799 12.14196593 -6 15 C-6 13.02 -6 11.04 -6 9 C-5.34 9 -4.68 9 -4 9 C-4 7.35 -4 5.7 -4 4 C-3.01 4 -2.02 4 -1 4 C-0.67 2.68 -0.34 1.36 0 0 Z " fill="#EED23D" transform="translate(57,21)"/>
<path d="M0 0 C0.33 0.66 0.66 1.32 1 2 C6.94 2 12.88 2 19 2 C19 3.32 19 4.64 19 6 C18.34 5.34 17.68 4.68 17 4 C14.10032243 3.69324768 11.28216822 3.48826629 8.375 3.375 C7.57320312 3.33632813 6.77140625 3.29765625 5.9453125 3.2578125 C3.96392444 3.16346069 1.98199355 3.08063785 0 3 C0 2.01 0 1.02 0 0 Z " fill="#FAF8C3" transform="translate(53,33)"/>
<path d="M0 0 C0.33 0 0.66 0 1 0 C1.50341475 5.2858549 0.26910671 7.86554151 -3 12 C-3.99 12.495 -3.99 12.495 -5 13 C-5 11.68 -5 10.36 -5 9 C-4.34 9 -3.68 9 -3 9 C-2.67 7.68 -2.34 6.36 -2 5 C-1.67 5 -1.34 5 -1 5 C-0.67 3.35 -0.34 1.7 0 0 Z " fill="#91D2E1" transform="translate(58,57)"/>
<path d="M0 0 C0.66 0.33 1.32 0.66 2 1 C2 3.97 2 6.94 2 10 C1.01 10 0.02 10 -1 10 C-1.02689216 8.52093108 -1.04634621 7.04172517 -1.0625 5.5625 C-1.07410156 4.73878906 -1.08570313 3.91507812 -1.09765625 3.06640625 C-1 1 -1 1 0 0 Z " fill="#38BEE9" transform="translate(39,69)"/>
<path d="M0 0 C0.33 1.32 0.66 2.64 1 4 C-0.32 4.33 -1.64 4.66 -3 5 C-3 5.99 -3 6.98 -3 8 C-4.32 7.67 -5.64 7.34 -7 7 C-4.69 4.69 -2.38 2.38 0 0 Z " fill="#EED03A" transform="translate(54,15)"/>
<path d="M0 0 C0.33 0.66 0.66 1.32 1 2 C0.67 2.99 0.34 3.98 0 5 C1.32 4.01 2.64 3.02 4 2 C4.66 2.33 5.32 2.66 6 3 C4.25 5 4.25 5 2 7 C0.68 7 -0.64 7 -2 7 C-1.125 1.125 -1.125 1.125 0 0 Z " fill="#BEEBF3" transform="translate(29,84)"/>
<path d="M0 0 C0.66 0 1.32 0 2 0 C2 4.29 2 8.58 2 13 C1.67 13 1.34 13 1 13 C0.63779734 11.20994059 0.28547531 9.41787943 -0.0625 7.625 C-0.25972656 6.62726562 -0.45695312 5.62953125 -0.66015625 4.6015625 C-1 2 -1 2 0 0 Z " fill="#8DC8CC" transform="translate(18,38)"/>
<path d="M0 0 C0.99 0.33 1.98 0.66 3 1 C1.68 3.31 0.36 5.62 -1 8 C-1.33 8 -1.66 8 -2 8 C-2.125 5.125 -2.125 5.125 -2 2 C-1.34 1.34 -0.68 0.68 0 0 Z " fill="#9CDAE8" transform="translate(33,60)"/>
<path d="M0 0 C2.64 0 5.28 0 8 0 C8 0.66 8 1.32 8 2 C4.67465243 3.10844919 2.37817425 2.84454356 -1 2 C-0.67 1.34 -0.34 0.68 0 0 Z " fill="#4FBEDD" transform="translate(22,61)"/>
<path d="M0 0 C2.64 0 5.28 0 8 0 C5.375 4.875 5.375 4.875 2 6 C2 5.34 2 4.68 2 4 C2.66 4 3.32 4 4 4 C4 3.01 4 2.02 4 1 C2.68 0.67 1.36 0.34 0 0 Z " fill="#DFDE47" transform="translate(62,37)"/>
<path d="M0 0 C0.66 0.33 1.32 0.66 2 1 C-2.75 5.875 -2.75 5.875 -5 7 C-3.75023244 3.34683329 -3.32901247 2.21934164 0 0 Z " fill="#6FBDBA" transform="translate(43,63)"/>
<path d="M0 0 C0 1.98 0 3.96 0 6 C-0.66 6 -1.32 6 -2 6 C-2 5.34 -2 4.68 -2 4 C-2.99 4 -3.98 4 -5 4 C-5 3.34 -5 2.68 -5 2 C-1.125 0 -1.125 0 0 0 Z " fill="#61C4E6" transform="translate(55,60)"/>
<path d="M0 0 C0.99 0 1.98 0 3 0 C1.92598892 2.91517292 1.22189824 4.77810176 -1 7 C-1.04254356 5.00045254 -1.04080783 2.99958364 -1 1 C-0.67 0.67 -0.34 0.34 0 0 Z " fill="#AFDEDB" transform="translate(65,45)"/>
<path d="" fill="#FFFFFF" transform="translate(0,0)"/>
<path d="M0 0 C2 1 2 1 2 1 Z " fill="#FFFFFF" transform="translate(8,15)"/>
<path d="" fill="#FFFFFF" transform="translate(0,0)"/>
<path d="" fill="#FF00FF" transform="translate(0,0)"/>
<path d="" fill="#FFFFFF" transform="translate(0,0)"/>
<path d="" fill="#FFFFFF" transform="translate(0,0)"/>
<path d="" fill="#00FFFF" transform="translate(0,0)"/>
<path d="" fill="#FFFFFF" transform="translate(0,0)"/>
<path d="" fill="#FFFFFF" transform="translate(0,0)"/>
<path d="" fill="#FF00FF" transform="translate(0,0)"/>
<path d="" fill="#FFFFFF" transform="translate(0,0)"/>
<path d="" fill="#FFFFFF" transform="translate(0,0)"/>
<path d="" fill="#FFFFFF" transform="translate(0,0)"/>
<path d="" fill="#FFFFFF" transform="translate(0,0)"/>
<path d="" fill="#FFFFFF" transform="translate(0,0)"/>
<path d="" fill="#FFFFFF" transform="translate(0,0)"/>
<path d="" fill="#FFFFFF" transform="translate(0,0)"/>
<path d="" fill="#FFFFFF" transform="translate(0,0)"/>
<path d="" fill="#FFFFFF" transform="translate(0,0)"/>
<path d="" fill="#FFFFFF" transform="translate(0,0)"/>
<path d="" fill="#FFFFFF" transform="translate(0,0)"/>
<path d="" fill="#FFFFFF" transform="translate(0,0)"/>
<path d="" fill="#FFFFFF" transform="translate(0,0)"/>
<path d="" fill="#FFFFFF" transform="translate(0,0)"/>
<path d="" fill="#FFFFFF" transform="translate(0,0)"/>
<path d="" fill="#FFFFFF" transform="translate(0,0)"/>
<path d="" fill="#FFFFFF" transform="translate(0,0)"/>
<path d="" fill="#FFFFFF" transform="translate(0,0)"/>
<path d="" fill="#FFFFFF" transform="translate(0,0)"/>
<path d="" fill="#FFFFFF" transform="translate(0,0)"/>
<path d="" fill="#FFFFFF" transform="translate(0,0)"/>
<path d="" fill="#FFFFFF" transform="translate(0,0)"/>
<path d="" fill="#FFFFFF" transform="translate(0,0)"/>
<path d="" fill="#FFFFFF" transform="translate(0,0)"/>
<path d="" fill="#FFFFFF" transform="translate(0,0)"/>
<path d="" fill="#FFFFFF" transform="translate(0,0)"/>
<path d="" fill="#FFFFFF" transform="translate(0,0)"/>
<path d="" fill="#FFFFFF" transform="translate(0,0)"/>
<path d="" fill="#FFFFFF" transform="translate(0,0)"/>
<path d="" fill="#FFFFFF" transform="translate(0,0)"/>
<path d="" fill="#FFFFFF" transform="translate(0,0)"/>
<path d="" fill="#FFFFFF" transform="translate(0,0)"/>
</svg>
